<svg width="151" height="151" viewBox="0 0 151 151" fill="none" xmlns="http://www.w3.org/2000/svg">
<path d="M135.541 40.8836C138.417 52.0953 138.417 75.5003 138.417 75.5003C138.417 75.5003 138.417 98.9053 135.541 110.117C133.943 116.314 129.269 121.19 123.348 122.839C112.596 125.834 75.5 125.834 75.5 125.834C75.5 125.834 38.4232 125.834 27.6519 122.839C21.7062 121.165 17.0378 116.296 15.4586 110.117C12.5833 98.9053 12.5833 75.5003 12.5833 75.5003C12.5833 75.5003 12.5833 52.0953 15.4586 40.8836C17.0567 34.6863 21.7314 29.8102 27.6519 28.1618C38.4232 25.167 75.5 25.167 75.5 25.167C75.5 25.167 112.596 25.167 123.348 28.1618C129.294 29.8354 133.962 34.7052 135.541 40.8836ZM62.9166 97.5212L100.667 75.5003L62.9166 53.4795V97.5212Z" fill="white"/>
</svg>
