<svg width="102" height="39" viewBox="0 0 102 39" fill="none" xmlns="http://www.w3.org/2000/svg">
<g clip-path="url(#clip0_2243_76)">
<path d="M98.3236 4.70339V3.99995V3.531C98.3236 3.08335 98.3766 2.63571 98.4297 2.25201C98.5048 1.77239 98.739 1.50594 99.2086 1.39936C99.4643 1.34607 101.118 1.23948 101.118 1.23948V0.0990601H92.1582V1.23948C92.1582 1.23948 93.4813 1.31409 93.7477 1.34607C93.9288 1.36738 94.0999 1.3887 94.2811 1.39936C94.8675 1.44199 95.262 1.75108 95.4224 2.31596C95.5499 2.77426 95.5821 3.26454 95.6036 3.68021C95.8592 9.16916 95.8062 18.6763 95.8062 18.6763L79.3918 0.131034H75.6478C75.6478 0.131034 75.5626 9.7234 75.5626 10.2137C75.5626 10.6826 75.5626 11.1409 75.5626 11.6099C75.5519 13.0061 75.5626 14.413 75.5626 15.8092C75.5734 17.6637 75.5841 19.5076 75.5412 21.3621C75.5197 22.3107 75.5948 23.3126 75.4023 24.2398C75.36 24.4636 75.2855 24.6875 75.1359 24.858C74.9762 25.0498 74.7414 25.1671 74.4958 25.2204C73.9839 25.3376 73.4082 25.295 72.8855 25.295V26.4354H81.2685V25.295H80.5969C80.2023 25.2737 79.8185 25.2204 79.4985 25.1565C79.0396 25.0712 78.3464 24.7727 78.3464 23.6323C78.3464 21.8311 78.3464 20.0298 78.3572 18.2286C78.3679 16.3954 78.3679 14.5622 78.3786 12.729C78.3786 11.1196 78.3887 9.52091 78.3887 7.91153L94.3234 26.4887H98.3444C98.3337 26.4887 98.3022 7.05888 98.3236 4.70339Z" fill="black"/>
<path d="M46.1248 25.9559C46.1248 25.9026 46.1248 25.8599 46.1248 25.8386V25.327H45.2822L44.5036 25.2738C44.1516 25.2524 43.8956 25.1991 43.661 25.1139C43.373 25.0073 43.2237 24.7835 43.1063 24.2932C42.925 23.5258 42.9037 22.7584 42.8717 21.9377L42.861 21.6926C42.829 20.8825 42.829 20.0619 42.829 19.2518V18.4525C42.8184 15.8839 42.8184 13.3153 42.8184 10.7466V6.61125C42.8184 5.38558 42.8184 4.19186 42.893 2.99815C42.9144 2.58248 42.9784 2.25207 43.0957 1.94299C43.2024 1.66588 43.3836 1.49534 43.6503 1.41008C43.9596 1.31415 44.3009 1.26086 44.6742 1.2502C44.6849 1.2502 44.6849 1.2502 44.6956 1.2502H45.2395V0.834533C45.2502 0.80256 45.2609 0.770586 45.2609 0.75993C45.2715 0.685321 45.2609 0.610714 45.2395 0.536106V0.0991211H35.9816V1.2502H36.8882C36.9309 1.2502 36.9842 1.2502 37.0482 1.2502C37.4535 1.27152 37.8802 1.3035 38.2854 1.42073C38.776 1.55929 39.0427 1.85772 39.128 2.37997C39.2454 3.07275 39.2454 3.79751 39.256 4.49029C39.2774 6.09968 39.2667 13.9974 39.2667 14.5729H25.1132C25.1132 14.5729 25.1345 10.8958 25.1132 10.8958C25.1132 10.8852 25.1132 6.18494 25.1132 4.68214C25.1132 4.14923 25.1239 3.61632 25.1559 3.08341C25.1772 2.66774 25.2412 2.33734 25.3372 2.02825C25.4652 1.6339 25.7211 1.43139 26.1585 1.36744L26.3931 1.32481C26.5851 1.29283 26.777 1.26086 26.9691 1.26086H26.9797H27.6943V0.0991211H18.4365V1.2502H19.1404C19.151 1.2502 19.151 1.2502 19.151 1.2502C19.1937 1.2502 19.2364 1.2502 19.3537 1.2502C19.727 1.27152 20.1643 1.3035 20.5589 1.42073C21.0602 1.55929 21.3056 1.84706 21.3908 2.33734C21.5082 3.10473 21.5295 3.89343 21.5295 4.55424C21.5402 9.40371 21.4655 22.5026 21.4228 22.9823C21.3695 23.6963 21.2736 24.2292 21.1242 24.7195C21.0282 25.0392 20.8469 25.1885 20.5056 25.2417C20.2816 25.2738 20.0576 25.2951 19.823 25.3164H18.7564V26.4675H28.3876V25.3164H27.5557C27.1717 25.2844 26.7984 25.2524 26.4145 25.2205C25.8172 25.1671 25.5078 24.89 25.3692 24.2292C25.1665 23.238 25.1345 22.2255 25.1345 21.3409L25.0919 16.3528H39.2774C39.2774 17.3867 39.2347 22.1402 39.1707 22.865C39.1173 23.5684 39.0427 24.1546 38.8614 24.7195C38.7654 25.0286 38.5841 25.1778 38.2641 25.2311C38.0295 25.2738 37.7948 25.2951 37.5708 25.3164H36.3549V26.4675H46.1355V25.9559H46.1248Z" fill="black"/>
<path d="M75.4875 28.0981C74.6341 27.6931 73.792 27.1708 72.9915 26.542C72.0958 25.668 68.0217 23.1953 63.1687 7.11216C61.9634 3.12598 61.4301 0.0990601 61.4301 0.0990601H59.5849C59.5849 0.0990601 58.2624 3.82942 58.2731 3.85074C57.5372 5.73724 56.8439 7.64508 56.1826 9.49959L55.788 10.608C55.468 11.5033 55.148 12.4092 54.828 13.3045C53.8681 16.0117 52.8762 18.8148 51.8203 21.5433C51.4897 22.3959 51.1163 23.3552 50.6364 24.2505C50.3698 24.7621 49.9431 25.0925 49.3671 25.263C49.2072 25.3163 49.0365 25.3376 48.8552 25.3589H47.3833V26.4887H55.6493V25.3589H54.0814C53.1428 25.0925 53.6975 23.5044 53.9001 22.9396C54.5614 21.0317 55.8733 17.1948 55.8733 17.1948C55.8733 17.1948 60.1289 16.971 61.7181 17.0136C62.0808 17.0243 62.4434 17.0136 62.8167 17.0029C62.8914 17.1095 66.4644 24.4743 69.5468 27.0642C70.8693 28.1727 72.8849 29.4303 74.5596 29.846C77.3756 30.5281 79.5938 30.6134 82.442 30.1232C84.4147 29.7821 86.2598 29.0893 88.1264 28.4072C84.7669 29.3984 79.8286 30.1551 75.4875 28.0981ZM61.7821 15.255H61.5368C61.1742 15.255 60.8115 15.255 60.4489 15.255H60.0116C59.9903 15.255 59.9796 15.255 59.9583 15.255H59.3183C58.817 15.255 58.3157 15.2657 57.8145 15.2444H57.6651C57.3131 15.2337 56.9612 15.223 56.5986 15.223C57.1425 13.635 57.6438 12.0255 58.1344 10.4588C58.3478 9.78737 59.0623 7.5065 59.2756 7.06951C59.297 7.03756 59.361 7.04819 59.3716 7.08014C59.4356 7.20809 61.4835 13.4431 62.1554 15.255C62.0274 15.255 61.9101 15.255 61.7821 15.255Z" fill="black"/>
<path d="M17.5088 22.0016C18.0421 20.9997 18.2447 19.9125 18.1274 18.6762C18.0207 17.5571 17.6261 16.5659 16.9008 15.6493C15.8876 14.3596 14.5224 13.3471 13.1891 12.4412C12.5492 12.0042 11.8666 11.6205 11.2053 11.2368C10.7147 10.9384 10.2134 10.6506 9.70141 10.3202C8.57084 9.6061 7.39766 8.86007 6.42705 8.00742C5.37114 7.06947 4.96584 5.98233 5.22182 4.76731C5.48846 3.52029 6.46971 2.6783 8.24025 2.22C9.22147 1.95354 10.3094 2.00684 11.2693 2.04946C12.1546 2.0921 13.0078 2.27329 13.7864 2.59304C14.6077 2.92344 15.0983 3.32845 15.3543 3.8507C15.7916 4.74599 15.7809 5.47074 15.7809 5.64127C15.7809 5.66259 15.7916 5.67325 15.7916 5.69456V5.91838H17.1248V0.184286H15.7916C15.7276 0.695876 15.333 0.546664 15.1089 0.504032C13.2851 0.173628 12.1439 0.141654 10.3947 0.194944C9.47744 0.216261 8.67752 0.290868 7.95228 0.418766C6.00042 0.759829 4.41122 1.46327 3.20599 2.50777C1.70211 3.82938 1.13683 5.47074 1.46747 7.52778C1.63812 8.59361 2.2354 9.65938 3.28065 10.7679C4.28323 11.8443 5.57379 12.7183 6.69369 13.4218L7.8456 14.1465C8.9655 14.85 10.1281 15.5747 11.2053 16.3208C11.9626 16.843 12.6772 17.3759 13.2105 18.0154C15.9516 21.3621 11.9946 24.6768 8.64552 24.6661C6.96033 24.6554 5.32848 23.9414 4.12324 22.7796C2.68337 21.394 2.05409 20.4562 2.12874 17.9728V17.749H0.784859V25.4015H2.11808V25.0285C2.2034 24.5276 2.2034 24.2292 3.34464 24.7514C5.30715 25.636 7.12035 26.4354 9.00817 26.4993C12.4425 26.6059 15.8449 25.1031 17.5088 22.0016Z" fill="black"/>
<path d="M2.03423 32.5687V38.6328H0.784859V32.5687H2.03423Z" fill="black"/>
<path d="M11.2523 34.625V38.6328H10.0345V32.5687H11.2838L13.9401 36.587V32.5687H15.1579V38.6328H13.8981L11.2523 34.625Z" fill="black"/>
<path d="M27.1372 32.5687V33.7438H25.4678V38.6433H24.2185V33.7438H22.5491V32.5687H27.1372Z" fill="black"/>
<path d="M38.9169 37.4892V38.6328H34.5494V32.5687H38.9169V33.7123H35.7987V34.9818H38.7909V36.1253H35.7987V37.4788H38.9169V37.4892Z" fill="black"/>
<path d="M51.7259 38.6328H50.277L49.1432 36.3352H47.9463V38.6328H46.6969V32.5687H49.4476C50.0881 32.5687 50.592 32.7471 50.9385 33.0933C51.2954 33.4395 51.4635 33.9011 51.4635 34.4676C51.4635 34.8768 51.369 35.2336 51.1904 35.5378C51.0014 35.8421 50.739 36.0624 50.3925 36.2092L51.7259 38.6328ZM50.0356 35.0028C50.172 34.8768 50.235 34.6985 50.235 34.4676C50.235 34.2369 50.172 34.0585 50.0356 33.9221C49.8991 33.7857 49.7101 33.7123 49.4581 33.7123H47.9568V35.1916H49.4581C49.7101 35.1916 49.9096 35.1286 50.0356 35.0028Z" fill="black"/>
<path d="M60.4295 32.5687V38.6328H59.1801V32.5687H60.4295Z" fill="black"/>
<path d="M73.5742 33.3346C74.1625 33.9327 74.4668 34.6881 74.4668 35.6008C74.4668 36.5136 74.1726 37.269 73.5742 37.867C72.9758 38.465 72.2303 38.7587 71.3067 38.7587C70.3826 38.7587 69.6371 38.4545 69.0387 37.867C68.451 37.269 68.1467 36.5136 68.1467 35.6008C68.1467 34.6881 68.4402 33.9327 69.0387 33.3346C69.627 32.7366 70.3826 32.4429 71.3067 32.4429C72.2303 32.4429 72.9758 32.7366 73.5742 33.3346ZM72.6292 37.0276C72.9758 36.671 73.1437 36.1883 73.1437 35.6008C73.1437 35.0133 72.9758 34.5307 72.6292 34.174C72.2833 33.8172 71.842 33.6284 71.3067 33.6284C70.7714 33.6284 70.3195 33.8067 69.9836 34.174C69.6371 34.5307 69.4692 35.0133 69.4692 35.6008C69.4692 36.1883 69.6371 36.671 69.9836 37.0276C70.3302 37.3844 70.7714 37.5732 71.3067 37.5732C71.842 37.5732 72.2934 37.3949 72.6292 37.0276Z" fill="black"/>
<path d="M87.2022 38.6328H85.7529L84.6192 36.3352H83.4223V38.6328H82.1731V32.5687H84.9234C85.5641 32.5687 86.0679 32.7471 86.4144 33.0933C86.7717 33.4395 86.9396 33.9011 86.9396 34.4676C86.9396 34.8768 86.845 35.2336 86.6663 35.5378C86.4776 35.8421 86.215 36.0624 85.8684 36.2092L87.2022 38.6328ZM85.5117 35.0028C85.6481 34.8768 85.7112 34.6985 85.7112 34.4676C85.7112 34.2369 85.6481 34.0585 85.5117 33.9221C85.3754 33.7857 85.186 33.7123 84.9342 33.7123H83.433V35.1916H84.9342C85.186 35.1916 85.3855 35.1286 85.5117 35.0028Z" fill="black"/>
<path d="M96.7348 37.6466C97.0712 37.6466 97.3332 37.5836 97.5226 37.4683C97.7113 37.3423 97.806 37.1745 97.806 36.9542C97.806 36.7968 97.7429 36.6604 97.6273 36.5555C97.5118 36.4506 97.3546 36.3771 97.1653 36.3247C96.9765 36.2722 96.7663 36.2093 96.5353 36.1463C96.3042 36.0834 96.0738 36.0204 95.8428 35.9575C95.6118 35.8946 95.4015 35.8001 95.2021 35.6742C95.0133 35.5483 94.8555 35.3699 94.74 35.1497C94.6245 34.9188 94.562 34.6461 94.562 34.3208C94.562 33.7962 94.7615 33.3451 95.1604 32.9884C95.5594 32.6316 96.0947 32.4533 96.777 32.4533C97.4594 32.4533 98.0054 32.6421 98.4044 33.0303C98.8033 33.4186 99.0136 33.9012 99.0344 34.4782H97.806C97.7952 34.2054 97.7006 33.9851 97.5118 33.8172C97.3231 33.6494 97.0712 33.5654 96.7562 33.5654C96.462 33.5654 96.231 33.6283 96.0524 33.7543C95.8744 33.8801 95.7898 34.0375 95.7898 34.2369C95.7898 34.3942 95.8529 34.5306 95.9684 34.625C96.0947 34.73 96.2518 34.8034 96.4412 34.8559C96.63 34.9083 96.8503 34.9713 97.0813 35.0342C97.3123 35.0972 97.5434 35.1601 97.7852 35.2336C98.0263 35.2965 98.2365 35.391 98.4252 35.5168C98.614 35.6428 98.7718 35.8211 98.8873 36.0624C99.0028 36.3037 99.066 36.587 99.066 36.9122C99.066 37.4578 98.845 37.9089 98.4044 38.2446C97.9632 38.5908 97.3862 38.7587 96.6615 38.7587C96.2518 38.7587 95.8952 38.6958 95.5903 38.5803C95.286 38.465 95.0449 38.3076 94.8662 38.1082C94.6876 37.9089 94.562 37.6886 94.4673 37.4578C94.3726 37.227 94.331 36.9752 94.3202 36.7129H95.5486C95.5695 36.9752 95.6749 37.206 95.8744 37.3738C96.0738 37.5522 96.3573 37.6466 96.7348 37.6466Z" fill="black"/>
</g>
<defs>
<clipPath id="clip0_2243_76">
<rect width="101" height="39" fill="black" transform="translate(0.578964)"/>
</clipPath>
</defs>
</svg>
